PathFileType	4	(X/Y/Z)	Patient4_TMGait_0pt4_02_left_39.trc.trc
DataRate	CameraRate	NumFrames	NumMarkers	Units	OrigDataRate	OrigDataStartFrame	OrigNumFrames
78.651685393258	78.651685393258	4	33	mm	78.651685393258	124	       141
Frame#	Time	Sacral			L.Shoulder			Chest			R.Shoulder			Neck			R.ASIS			L.ASIS			R.Thigh.Superior			R.Thigh.Lateral			R.Thigh.Inferior			R.Patella			L.Thigh.Superior			L.Thigh.Lateral			L.Thigh.Inferior			L.Patella			L.Shank.Superior			L.Shank.Lateral			L.Shank.Inferior			R.Shank.Superior			R.Shank.Lateral			R.Shank.Inferior			R.Heel			R.Midfoot.Superior			R.Midfoot.Lateral			R.Toe			L.Heel			L.Midfoot.Lateral			L.Midfoot.Superior			L.Toe			L.Elbow			L.Wrist			R.Elbow			R.Wrist			
		X1	Y1	Z1	X2	Y2	Z2	X3	Y3	Z3	X4	Y4	Z4	X5	Y5	Z5	X6	Y6	Z6	X7	Y7	Z7	X8	Y8	Z8	X9	Y9	Z9	X10	Y10	Z10	X11	Y11	Z11	X12	Y12	Z12	X13	Y13	Z13	X14	Y14	Z14	X15	Y15	Z15	X16	Y16	Z16	X17	Y17	Z17	X18	Y18	Z18	X19	Y19	Z19	X20	Y20	Z20	X21	Y21	Z21	X22	Y22	Z22	X23	Y23	Z23	X24	Y24	Z24	X25	Y25	Z25	X26	Y26	Z26	X27	Y27	Z27	X28	Y28	Z28	X29	Y29	Z29	X30	Y30	Z30	X31	Y31	Z31	X32	Y32	Z32	X33	Y33	Z33	

124	53.683857142857	829.392431150100	1001.288033961000	538.512378229291	968.052908202724	1430.374409535660	337.447638569273	1097.751778542161	1364.853852517036	479.248637801263	1043.253138430797	1436.402068208796	664.696478160034	975.543601893321	1492.334501085638	495.456272659924	1069.798721762001	936.752994746007	626.516703456601	1023.269537202155	960.116204064826	354.524680131247	1071.312973099963	725.480682886019	600.147597374701	974.695261764893	629.727473461476	670.857553601690	1032.427140268140	564.869924978025	588.305602438183	1016.406597706489	480.388423353330	595.683835773155	1100.078935748756	768.007746962102	378.268066621176	1037.471003623891	640.210555585046	308.890968892844	1143.617226811477	579.434354509233	361.326126001917	1162.481878413274	509.511659810257	358.877383022500	1137.540447126481	435.758574112533	350.181458023874	1051.949562360617	315.886263676548	303.484241764311	1126.924818598641	205.939012412925	355.266298817730	979.894476737023	395.240694264829	606.302215077521	900.438179435050	300.898976590415	673.320532707211	927.735081527715	201.160947138861	610.057879036020	780.338340050605	42.839719437325	586.371837385526	950.615678875181	95.895029143174	620.643760451453	863.164406948916	36.164518014848	660.920689608483	1071.277818125352	44.228121351850	650.742881812505	1021.400974520342	41.170108858202	397.625391416955	1091.035238619965	38.604798568717	313.689662466522	1172.626275694825	104.660850441795	333.680496038129	1300.182196632240	58.765805249497	298.949760641848	890.954689745377	1087.175354695368	222.414450248706	951.837986656057	833.761917810645	186.466128645906	1189.410178247618	1125.229255757265	766.978343559512	1382.898344205134	1229.789987030174	651.552662182900	
125	53.696571428571	830.979528520706	1000.559077176904	535.474536797443	968.125430752066	1429.699617668201	334.484841130992	1097.950697842643	1364.790025780532	476.393987530840	1042.883319969585	1435.918413903637	661.885979871980	975.256787272542	1491.717680149430	492.582449170739	1071.476425009262	936.076092337820	623.765719514834	1025.135026682073	959.362221407481	351.929689353139	1072.140819141076	724.370646986097	598.224505055872	974.482599339452	629.268182465811	668.825954148938	1031.909637959297	563.750104832027	586.611097728825	1015.195165852429	479.132747064408	593.952483957360	1100.788914370350	765.661090931791	376.010893876315	1036.316277796490	638.301211564191	308.047380319557	1142.307366142645	577.054019989546	360.601109160458	1159.957422124088	506.536055186077	358.743482041645	1134.407003811469	432.677451664473	350.280454552160	1047.346169606941	313.514865029242	304.363537729285	1120.733768898816	203.010157636758	356.913491004032	977.815667601713	394.453749027100	604.930093165725	897.570487010082	301.118042064997	672.559555963214	923.770107754778	200.867450167327	609.590658092244	775.244983226219	43.029462163701	586.450995017206	945.625077650716	95.870830989742	620.636665929706	858.094883927069	36.191435548768	660.929835645990	1066.234511164015	43.935688379763	650.807397929050	1012.744805813464	39.991755675886	399.678626465970	1082.312696727494	37.142569871365	315.597222022936	1164.815186008416	101.691209519518	336.213098659919	1291.977010542015	54.189899831601	301.148503702693	890.139647084056	1086.669366480526	219.856155906225	949.980680161778	832.927513149467	184.792438126353	1190.595884446464	1125.278337214075	763.972183382848	1382.195539470691	1233.347069758265	648.744192565258	
126	53.709285714286	832.490441247433	999.962103070000	532.398809914963	968.335433023111	1429.106456008133	331.410837893077	1098.258832167536	1364.772119315484	473.437225688471	1042.671114079459	1435.537069812367	658.973440020646	975.086652723876	1491.207504518473	489.590929911065	1073.093493002722	935.452549325686	620.841637468656	1026.857178674871	958.822568643130	349.187636404309	1073.113292522347	723.361630542390	596.003798299717	974.660633545015	628.793849199446	666.584297264327	1031.808759454799	562.686162970023	584.662018335431	1014.498946987077	477.812049954743	592.039494176944	1101.471097588967	763.687035147438	373.773345722290	1035.564756703550	636.874014072895	306.869511846219	1141.190740289339	575.116248409536	359.894514679585	1157.767370849794	504.110500648868	358.535276195351	1131.776186399882	430.157445214215	350.170833830933	1043.699757755472	311.615662325600	304.611339942346	1115.435320919854	200.681847587230	358.108016409732	976.133101872808	393.634491592008	603.401601638616	895.024850417538	301.408613390397	671.682398786045	919.997678619394	200.618062843502	609.062220706365	770.179900795731	43.389061836084	586.554632109546	940.719437592304	95.878039845997	620.633510722775	853.075806173457	36.298655298577	660.943483733270	1061.247683132180	43.565691496081	650.883104501063	1005.271864986091	39.106421776301	401.052409972576	1074.850170053530	36.199522918020	316.902964912415	1158.006702766816	99.509283543860	338.214661084421	1284.908688061078	50.820276676705	302.918681125516	889.625904198400	1086.175638757053	217.209896501394	948.553170588379	832.123543762347	183.100426158568	1191.149545105346	1125.023811604324	761.123793266020	1381.581127038505	1235.649271565122	646.282350407818	
127	53.722000000000	833.897010123046	999.517886766464	529.301549566719	968.659785750106	1428.637452667958	328.267504920050	1098.662813723623	1364.808807227043	470.402066908878	1042.640321770886	1435.283524392825	655.980870634907	975.031391132809	1490.833784175315	486.522620868159	1074.603219553399	934.923332549350	617.748616109431	1028.389533035077	958.517870775913	346.271938316678	1074.159942771686	722.503527335357	593.479347258648	975.191044198517	628.343998502406	664.156842555456	1032.107124533515	561.718187297136	582.493722064868	1014.328570677313	476.455116216865	590.011644802040	1102.191033998397	762.233460164963	371.537423613645	1035.342269827551	635.970288744956	305.339518467785	1140.391410344344	573.688383255255	359.111149446760	1156.020373397049	502.260136916469	358.166414462095	1129.719445521667	428.208741438796	349.826582478544	1040.998116339526	310.226473325919	304.227558681206	1110.973159268711	198.948733027466	358.841560574365	974.848880456129	392.817018898539	601.761814267177	892.792452475343	301.803202047339	670.705782262965	916.432888974665	200.450378338366	608.493069979777	765.154230017381	43.988103200054	586.690431805891	935.922571713736	95.931531003144	620.645815577461	848.117327329646	36.522395713983	660.965705528682	1056.323860162489	43.115056122062	650.970344221649	998.874471658029	38.525560939620	401.822645580867	1068.507895337317	35.703016035568	317.659551970840	1152.100929692613	98.057851869729	339.644523931739	1278.852728261872	48.534250937552	304.189681638539	889.447282899910	1085.726832154682	214.492293895095	947.555960822786	831.377517594210	181.378466075148	1191.062872638343	1124.476734100003	758.413209431031	1381.107797557039	1236.682060883533	644.148190080060	
